<svg width="49" height="49" viewBox="0 0 49 49" fill="none" xmlns="http://www.w3.org/2000/svg">
<rect width="48.7805" height="48.7805" rx="24.3902" fill="#0094C4"/>
<path d="M24 14C25.1603 14 26.2731 14.4605 27.0936 15.2802C27.9141 16.0999 28.375 17.2117 28.375 18.3709C28.375 19.5302 27.9141 20.642 27.0936 21.4617C26.2731 22.2814 25.1603 22.7419 24 22.7419C22.8397 22.7419 21.7269 22.2814 20.9064 21.4617C20.0859 20.642 19.625 19.5302 19.625 18.3709C19.625 17.2117 20.0859 16.0999 20.9064 15.2802C21.7269 14.4605 22.8397 14 24 14ZM15.25 17.1221C15.95 17.1221 16.6 17.3094 17.1625 17.6466C16.975 19.4325 17.5 21.2058 18.575 22.592C17.95 23.7909 16.7 24.6152 15.25 24.6152C14.2554 24.6152 13.3016 24.2204 12.5983 23.5178C11.8951 22.8152 11.5 21.8623 11.5 20.8686C11.5 19.875 11.8951 18.922 12.5983 18.2194C13.3016 17.5168 14.2554 17.1221 15.25 17.1221ZM32.75 17.1221C33.7446 17.1221 34.6984 17.5168 35.4017 18.2194C36.1049 18.922 36.5 19.875 36.5 20.8686C36.5 21.8623 36.1049 22.8152 35.4017 23.5178C34.6984 24.2204 33.7446 24.6152 32.75 24.6152C31.3 24.6152 30.05 23.7909 29.425 22.592C30.5148 21.1864 31.0207 19.4152 30.8375 17.6466C31.4 17.3094 32.05 17.1221 32.75 17.1221ZM15.875 29.9227C15.875 27.3376 19.5125 25.2396 24 25.2396C28.4875 25.2396 32.125 27.3376 32.125 29.9227V32.1082H15.875V29.9227ZM9 32.1082V30.235C9 28.4991 11.3625 27.0379 14.5625 26.6133C13.825 27.4625 13.375 28.6364 13.375 29.9227V32.1082H9ZM39 32.1082H34.625V29.9227C34.625 28.6364 34.175 27.4625 33.4375 26.6133C36.6375 27.0379 39 28.4991 39 30.235V32.1082Z" fill="white"/>
</svg>
