<svg width="34" height="34" viewBox="0 0 34 34" fill="none" xmlns="http://www.w3.org/2000/svg">
<circle cx="17" cy="17" r="17" fill="#50B747"/>
<path d="M21.6 9H11.4V12.4H21.6M22.45 16.65C22.2246 16.65 22.0084 16.5604 21.849 16.401C21.6896 16.2416 21.6 16.0254 21.6 15.8C21.6 15.5746 21.6896 15.3584 21.849 15.199C22.0084 15.0396 22.2246 14.95 22.45 14.95C22.6754 14.95 22.8916 15.0396 23.051 15.199C23.2104 15.3584 23.3 15.5746 23.3 15.8C23.3 16.0254 23.2104 16.2416 23.051 16.401C22.8916 16.5604 22.6754 16.65 22.45 16.65ZM19.9 22.6H13.1V18.35H19.9M22.45 13.25H10.55C9.8737 13.25 9.2251 13.5187 8.74688 13.9969C8.26866 14.4751 8 15.1237 8 15.8V20.9H11.4V24.3H21.6V20.9H25V15.8C25 15.1237 24.7313 14.4751 24.2531 13.9969C23.7749 13.5187 23.1263 13.25 22.45 13.25Z" fill="white"/>
</svg>
