<svg width="68" height="68" viewBox="0 0 68 68" fill="none" xmlns="http://www.w3.org/2000/svg">
<rect width="68" height="68" rx="34" fill="#0094C4"/>
<path d="M34 22C35.6245 22 37.1824 22.6103 38.331 23.6968C39.4797 24.7832 40.125 26.2567 40.125 27.7931C40.125 29.3295 39.4797 30.803 38.331 31.8894C37.1824 32.9759 35.6245 33.5862 34 33.5862C32.3755 33.5862 30.8176 32.9759 29.669 31.8894C28.5203 30.803 27.875 29.3295 27.875 27.7931C27.875 26.2567 28.5203 24.7832 29.669 23.6968C30.8176 22.6103 32.3755 22 34 22ZM21.75 26.1379C22.73 26.1379 23.64 26.3862 24.4275 26.8331C24.165 29.2 24.9 31.5503 26.405 33.3876C25.53 34.9766 23.78 36.069 21.75 36.069C20.3576 36.069 19.0223 35.5458 18.0377 34.6146C17.0531 33.6834 16.5 32.4204 16.5 31.1034C16.5 29.7865 17.0531 28.5235 18.0377 27.5923C19.0223 26.6611 20.3576 26.1379 21.75 26.1379ZM46.25 26.1379C47.6424 26.1379 48.9777 26.6611 49.9623 27.5923C50.9469 28.5235 51.5 29.7865 51.5 31.1034C51.5 32.4204 50.9469 33.6834 49.9623 34.6146C48.9777 35.5458 47.6424 36.069 46.25 36.069C44.22 36.069 42.47 34.9766 41.595 33.3876C43.1208 31.5246 43.829 29.1772 43.5725 26.8331C44.36 26.3862 45.27 26.1379 46.25 26.1379ZM22.625 43.1034C22.625 39.6772 27.7175 36.8966 34 36.8966C40.2825 36.8966 45.375 39.6772 45.375 43.1034V46H22.625V43.1034ZM13 46V43.5172C13 41.2166 16.3075 39.28 20.7875 38.7172C19.755 39.8428 19.125 41.3986 19.125 43.1034V46H13ZM55 46H48.875V43.1034C48.875 41.3986 48.245 39.8428 47.2125 38.7172C51.6925 39.28 55 41.2166 55 43.5172V46Z" fill="white"/>
</svg>
