<svg width="306" height="270" viewBox="0 0 306 270" fill="none" xmlns="http://www.w3.org/2000/svg">
<path d="M305.095 107.037C303.395 105.672 301.729 104.265 299.98 102.969C295.89 99.9386 291.625 97.1869 287.116 94.7975C283.73 93.0002 280.274 91.3701 276.706 89.9768C264.748 85.3094 252.477 83.0035 239.899 83.0732C236.394 89.3707 232.178 95.2921 227.258 100.844C219.544 109.545 210.569 116.686 200.347 122.245C189.197 128.312 177.316 132.158 164.697 133.621C161.644 133.976 158.564 134.22 155.498 134.324C154.641 134.352 152.927 134.366 152.927 134.366H152.781C152.781 134.366 154.62 137.849 155.436 139.549C157.784 144.418 159.749 149.434 161.247 154.624C167.052 174.708 166.683 194.687 160.139 214.527C158.209 220.379 155.714 225.952 152.781 231.246C156.028 237.112 159.937 242.629 164.39 247.812C166.864 250.689 169.463 253.448 172.285 255.984C174.062 257.572 175.888 259.105 177.7 260.651C178.369 261.222 179.051 261.773 179.734 262.33C181.86 263.821 183.985 265.305 186.117 266.796C186.243 266.844 186.382 266.879 186.494 266.956C187.197 267.395 187.894 267.854 188.605 268.279C189.581 268.864 190.57 269.422 191.56 270C200.368 257.426 209.127 244.914 217.914 232.375C217.74 232.271 217.593 232.18 217.44 232.096C215.768 231.205 214.053 230.369 212.423 229.4C209.482 227.659 206.73 225.653 204.179 223.382C201.378 220.888 198.835 218.157 196.619 215.126C189.197 204.97 185.657 193.594 186.006 181.033C186.264 171.754 188.863 163.13 193.587 155.147C195.253 152.332 197.183 149.692 199.343 147.219C201.915 144.272 204.758 141.618 207.907 139.305C216.2 133.203 225.488 129.706 235.739 128.856C247.237 127.908 257.961 130.444 267.898 136.282C271.849 138.602 275.389 141.486 278.692 144.648C279.012 144.955 279.173 144.969 279.444 144.586C288.008 132.346 296.579 120.106 305.151 107.873C305.248 107.734 305.346 107.595 305.464 107.427C305.332 107.281 305.227 107.142 305.095 107.037Z" fill="#FFD100"/>
<path d="M257.884 153.071C250.045 148.466 241.655 147.121 232.778 149.002C226.36 150.368 220.792 153.384 216.06 157.947C213.677 160.246 211.67 162.837 210.04 165.701C202.939 178.198 204.382 193.406 212.911 204.259C215.398 207.429 218.353 210.097 221.775 212.208C228.485 216.359 235.795 218.094 243.655 217.293C251.306 216.513 257.996 213.496 263.661 208.293C264.825 207.227 265.835 205.987 266.922 204.83C267.027 204.719 267.145 204.621 267.257 204.524C268.114 203.305 268.964 202.086 269.821 200.866C270.198 200.149 270.574 199.438 270.95 198.721C273.201 194.43 274.49 189.853 274.748 185.018C275.264 175.377 272.33 166.906 265.947 159.661C263.633 157.041 260.923 154.854 257.884 153.071ZM250.352 189.978C246.401 195.614 238.701 196.979 233.056 193.036C227.398 189.086 226.025 181.361 229.99 175.711C233.941 170.075 241.641 168.717 247.286 172.653C252.944 176.603 254.317 184.328 250.352 189.978Z" fill="#FFD100"/>
<path d="M92.7904 204.273C101.32 193.419 102.762 178.205 95.6614 165.714C94.0308 162.844 92.0239 160.26 89.6407 157.961C84.9092 153.398 79.3415 150.382 72.9237 149.016C64.046 147.128 55.6631 148.48 47.8167 153.085C44.7855 154.868 42.0679 157.048 39.7474 159.689C33.3714 166.934 30.4307 175.405 30.9464 185.046C31.2042 189.881 32.4934 194.45 34.7441 198.749C35.1204 199.466 35.4967 200.177 35.873 200.894C36.7301 202.113 37.5802 203.332 38.4373 204.552C38.5488 204.656 38.6743 204.747 38.7718 204.858C39.8589 206.014 40.8693 207.254 42.033 208.32C47.7052 213.517 54.3879 216.541 62.0391 217.321C69.8994 218.122 77.2092 216.387 83.9197 212.235C87.3481 210.104 90.2957 207.443 92.7904 204.273ZM72.6449 193.036C67.0006 196.972 59.3006 195.614 55.3495 189.978C51.3845 184.328 52.7503 176.603 58.4156 172.653C64.0599 168.717 71.76 170.082 75.711 175.711C79.676 181.361 78.3032 189.093 72.6449 193.036Z" fill="#00B1EB"/>
<path d="M144.217 154.617C145.715 149.427 147.687 144.411 150.028 139.542C150.844 137.842 152.781 134.366 152.781 134.366H152.662C152.662 134.366 150.823 134.352 149.966 134.317C146.893 134.213 143.82 133.962 140.767 133.614C128.148 132.151 116.274 128.312 105.117 122.238C94.9018 116.679 85.9196 109.538 78.2057 100.837C73.286 95.2851 68.8472 89.3568 65.3421 83.0662C52.7712 83.0035 40.716 85.3024 28.7583 89.9698C25.1905 91.3631 21.7343 92.9932 18.3476 94.7905C13.8461 97.1799 9.5745 99.9386 5.48408 102.962C3.73503 104.258 2.0696 105.665 0.369323 107.03C0.236925 107.135 0.139367 107.274 0 107.427C0.111493 107.588 0.20905 107.727 0.313575 107.873C8.88463 120.106 17.4557 132.346 26.0198 144.586C26.2915 144.969 26.4518 144.948 26.7724 144.648C30.0823 141.486 33.6153 138.602 37.5663 136.282C47.5032 130.444 58.2274 127.908 69.7252 128.856C79.9826 129.699 89.2644 133.196 97.5568 139.305C100.706 141.625 103.55 144.272 106.121 147.219C108.281 149.692 110.211 152.325 111.877 155.147C116.601 163.123 119.193 171.754 119.458 181.033C119.814 193.594 116.267 204.97 108.845 215.126C106.63 218.157 104.086 220.895 101.285 223.381C98.7344 225.653 95.9749 227.659 93.0413 229.4C91.4107 230.369 89.6965 231.198 88.0241 232.096C87.8708 232.18 87.7314 232.27 87.5502 232.375C96.3373 244.914 105.097 257.426 113.904 270C114.894 269.422 115.883 268.864 116.859 268.279C117.57 267.854 118.267 267.395 118.97 266.956C119.082 266.886 119.221 266.851 119.347 266.795C121.472 265.305 123.597 263.821 125.73 262.33C126.406 261.773 127.096 261.222 127.765 260.651C129.576 259.105 131.402 257.572 133.179 255.984C136.008 253.448 138.607 250.689 141.074 247.812C145.52 242.629 149.534 237.105 152.781 231.246C149.847 225.952 147.255 220.379 145.325 214.527C138.781 194.68 138.412 174.701 144.217 154.617Z" fill="#00B1EB"/>
<path d="M149.386 69.1266C152.668 69.4401 155.943 69.2799 159.198 68.6459C165.65 67.392 171.315 64.5637 176.117 60.0913C182.758 53.9052 186.458 46.2632 187.182 37.2001C187.461 33.696 187.231 30.2198 186.402 26.8063C184.123 17.4297 178.862 10.1638 170.667 5.05753C166.556 2.49393 162.075 0.926516 157.26 0.306515C156.459 0.20202 155.658 0.104495 154.856 0C153.365 0 151.881 0 150.39 0C150.243 0.0348315 150.09 0.0766268 149.944 0.0975257C148.376 0.320447 146.78 0.438874 145.233 0.780222C137.721 2.4382 131.415 6.18607 126.384 12.0029C121.213 17.98 118.447 24.9603 118.001 32.8392C117.771 36.8517 118.266 40.8016 119.436 44.654C123.443 57.8621 135.073 67.7682 149.386 69.1266ZM152.619 22.1946C159.525 22.1946 165.072 27.7398 165.058 34.6434C165.044 41.5192 159.511 47.0504 152.633 47.0504C145.735 47.0574 140.181 41.4983 140.195 34.6016C140.209 27.7189 145.735 22.2016 152.619 22.1946Z" fill="#2274AC"/>
<path d="M252.372 31.4528C252.317 29.2794 252.115 27.1128 252.01 24.9184C251.996 24.7513 251.94 24.591 251.899 24.389C251.697 24.389 251.522 24.389 251.355 24.389C236.415 24.389 221.468 24.396 206.528 24.382C206.061 24.3751 205.984 24.5283 206.047 24.9602C206.737 29.4814 207.071 34.0304 206.709 38.6003C205.789 50.0877 201.72 60.3212 194.347 69.1963C187.769 77.11 179.581 82.7109 169.818 85.999C166.111 87.246 162.307 88.054 158.418 88.472C155.15 88.8203 151.882 88.89 148.621 88.6392C139.374 87.9356 130.81 85.1073 123.061 80.001C112.567 73.0904 105.271 63.6581 101.208 51.7596C99.9957 48.2068 99.2083 44.5565 98.7763 40.8295C98.3791 37.4369 98.3094 34.0304 98.5742 30.6239C98.7205 28.729 99.0132 26.8481 99.2431 24.9672C99.264 24.8 99.271 24.6259 99.2849 24.4238C83.9685 24.4238 68.687 24.4238 53.3357 24.4238C53.2382 25.5663 53.1336 26.6949 53.05 27.8304C52.9943 28.6594 52.9734 29.4883 52.9246 30.3173C52.9176 30.4497 52.8619 30.5821 52.834 30.7144C52.834 33.3128 52.834 35.9043 52.834 38.5027C52.9037 39.3805 52.9594 40.2583 53.043 41.129C53.28 43.5045 53.482 45.8801 53.7677 48.2416C54.2207 52.0104 54.9942 55.7165 55.9349 59.3947C58.0811 67.7542 61.2099 75.654 65.3422 83.0662C66.6104 83.0731 95.3618 83.3588 114.678 96.0583C140.684 110.729 152.391 133.593 152.781 134.373C152.871 134.373 152.69 134.373 152.781 134.373C154.92 130.528 157.464 126.828 160.119 123.304C161.965 120.851 163.93 118.476 165.972 116.177C174.411 106.682 184.368 99.1583 195.741 93.5087C206.158 88.3327 217.161 85.0725 228.715 83.7489C232.471 83.317 236.199 83.094 239.899 83.0731C244.24 75.2709 247.502 66.9044 249.676 57.9736C250.582 54.2535 251.23 50.4848 251.696 46.6812C252.317 41.6167 252.512 36.5382 252.372 31.4528Z" fill="#2274AC"/>
</svg>
