<svg width="908" height="1039" viewBox="0 0 908 1039" fill="none" xmlns="http://www.w3.org/2000/svg">
<ellipse cx="166.829" cy="166.728" rx="166.829" ry="166.728" transform="matrix(-0.500451 0.864721 -0.867329 -0.499548 782.411 505.852)" fill="#FFD100"/>
<ellipse cx="96.156" cy="96.0981" rx="96.156" ry="96.0981" transform="matrix(-0.500451 0.864721 -0.867329 -0.499548 686.803 529.919)" fill="white"/>
<rect width="375.79" height="152.127" transform="matrix(-0.500451 0.864721 -0.867329 -0.499548 790.913 491.162)" fill="white"/>
<ellipse cx="58.1013" cy="58.0663" rx="58.1013" ry="58.0663" transform="matrix(-0.500451 0.864721 -0.867329 -0.499548 634.772 543.827)" fill="#FFD100"/>
<ellipse cx="412.718" cy="329.054" rx="166.979" ry="166.578" fill="#2274AC"/>
<ellipse cx="410.677" cy="329.054" rx="96.2427" ry="96.0112" fill="white"/>
<rect x="228.734" y="162.477" width="376.129" height="151.989" fill="white"/>
<ellipse cx="410.677" cy="329.055" rx="58.1537" ry="58.0138" fill="#2274AC"/>
<ellipse cx="166.678" cy="166.879" rx="166.678" ry="166.879" transform="matrix(-0.500904 -0.865503 0.866546 -0.499097 197.476 795.136)" fill="#00B1EB"/>
<ellipse cx="96.0691" cy="96.1849" rx="96.0691" ry="96.1849" transform="matrix(-0.500904 -0.865503 0.866546 -0.499097 224.387 700.503)" fill="white"/>
<rect width="375.45" height="152.264" transform="matrix(-0.500904 -0.865503 0.866546 -0.499097 205.978 809.826)" fill="white"/>
<ellipse cx="58.0488" cy="58.1188" rx="58.0488" ry="58.1188" transform="matrix(-0.500904 -0.865503 0.866546 -0.499097 238.703 648.382)" fill="#00B1EB"/>
<ellipse cx="23.3257" cy="23" rx="23.3257" ry="23" transform="matrix(-0.500904 -0.865503 0.866546 -0.499097 251.633 600.462)" fill="white"/>
<ellipse cx="23.3257" cy="23" rx="23.3257" ry="23" transform="matrix(-0.500904 -0.865503 0.866546 -0.499097 546.368 596.336)" fill="white"/>
<ellipse cx="23.3257" cy="23" rx="23.3257" ry="23" transform="matrix(-0.500904 -0.865503 0.866546 -0.499097 402.921 360.125)" fill="white"/>
<path d="M203.376 724.972L225.164 724.972L243.646 769.959L244.499 769.959L262.982 724.972L284.77 724.972L284.77 797.633L267.638 797.633L267.638 753L267.034 753L249.547 797.172L238.599 797.172L221.112 752.752L220.508 752.752L220.508 797.633L203.376 797.633L203.376 724.972ZM306.13 798.556C302.647 798.556 299.554 797.976 296.853 796.817C294.175 795.634 292.055 793.86 290.491 791.495C288.951 789.106 288.18 786.114 288.18 782.519C288.18 779.491 288.714 776.937 289.78 774.855C290.846 772.774 292.315 771.083 294.187 769.782C296.059 768.481 298.216 767.499 300.656 766.837C303.097 766.151 305.703 765.69 308.476 765.453C311.58 765.17 314.08 764.874 315.975 764.566C317.871 764.235 319.245 763.774 320.098 763.183C320.975 762.568 321.414 761.704 321.414 760.593L321.414 760.415C321.414 758.594 320.786 757.187 319.53 756.193C318.274 755.2 316.58 754.703 314.447 754.703C312.149 754.703 310.3 755.2 308.902 756.193C307.504 757.187 306.616 758.559 306.237 760.309L290.206 759.741C290.68 756.43 291.901 753.473 293.867 750.871C295.858 748.246 298.583 746.188 302.042 744.698C305.526 743.184 309.708 742.427 314.589 742.427C318.072 742.427 321.283 742.841 324.221 743.669C327.16 744.473 329.719 745.656 331.899 747.217C334.079 748.755 335.761 750.647 336.946 752.894C338.154 755.141 338.759 757.707 338.759 760.593L338.759 797.633L322.409 797.633L322.409 790.041L321.982 790.041C321.011 791.885 319.767 793.447 318.25 794.724C316.757 796.001 314.992 796.959 312.954 797.598C310.94 798.236 308.665 798.556 306.13 798.556ZM311.497 787.202C313.369 787.202 315.051 786.824 316.544 786.067C318.061 785.31 319.269 784.269 320.17 782.945C321.07 781.596 321.52 780.035 321.52 778.261L321.52 773.081C321.023 773.342 320.418 773.578 319.707 773.791C319.02 774.004 318.262 774.205 317.433 774.394C316.603 774.583 315.75 774.749 314.874 774.891C313.997 775.033 313.156 775.163 312.35 775.281C310.715 775.541 309.317 775.943 308.156 776.487C307.018 777.031 306.142 777.741 305.526 778.616C304.933 779.468 304.637 780.485 304.637 781.667C304.637 783.465 305.277 784.837 306.556 785.783C307.86 786.729 309.507 787.202 311.497 787.202ZM361.762 766.553L361.762 797.633L344.382 797.633L344.382 743.137L360.909 743.137L360.909 753.142L361.514 753.142C362.722 749.807 364.784 747.193 367.698 745.301C370.613 743.385 374.084 742.427 378.112 742.427C381.951 742.427 385.28 743.291 388.1 745.017C390.944 746.72 393.147 749.109 394.711 752.184C396.299 755.235 397.081 758.807 397.057 762.899L397.057 797.633L379.676 797.633L379.676 766.305C379.7 763.277 378.93 760.912 377.366 759.209C375.826 757.506 373.681 756.655 370.933 756.655C369.108 756.655 367.497 757.057 366.099 757.861C364.724 758.641 363.658 759.765 362.9 761.231C362.165 762.698 361.786 764.472 361.762 766.553ZM428.333 798.662C422.623 798.662 417.694 797.538 413.547 795.291C409.424 793.021 406.249 789.792 404.022 785.606C401.818 781.395 400.716 776.393 400.716 770.598C400.716 764.969 401.83 760.049 404.057 755.839C406.285 751.605 409.424 748.317 413.476 745.975C417.528 743.61 422.303 742.427 427.8 742.427C431.686 742.427 435.241 743.031 438.463 744.237C441.686 745.443 444.47 747.229 446.816 749.594C449.162 751.959 450.986 754.881 452.29 758.358C453.593 761.811 454.245 765.773 454.245 770.243L454.245 774.572L406.794 774.572L406.794 764.495L438.072 764.495C438.049 762.651 437.61 761.007 436.757 759.564C435.904 758.121 434.731 756.998 433.238 756.193C431.769 755.365 430.075 754.952 428.156 754.952C426.213 754.952 424.471 755.389 422.931 756.264C421.391 757.116 420.17 758.287 419.27 759.777C418.369 761.243 417.896 762.911 417.848 764.779L417.848 775.033C417.848 777.256 418.287 779.208 419.163 780.887C420.04 782.543 421.284 783.832 422.895 784.754C424.507 785.677 426.426 786.138 428.653 786.138C430.194 786.138 431.592 785.925 432.847 785.499C434.103 785.073 435.181 784.447 436.082 783.619C436.982 782.791 437.658 781.774 438.108 780.568L454.067 781.029C453.403 784.6 451.946 787.711 449.695 790.36C447.468 792.985 444.541 795.031 440.916 796.498C437.29 797.941 433.096 798.662 428.333 798.662ZM473.507 798.556C470.024 798.556 466.932 797.976 464.231 796.817C461.553 795.634 459.432 793.86 457.868 791.495C456.328 789.106 455.558 786.114 455.558 782.519C455.558 779.491 456.091 776.937 457.157 774.855C458.224 772.774 459.693 771.083 461.565 769.782C463.437 768.481 465.593 767.499 468.034 766.837C470.474 766.151 473.081 765.69 475.853 765.453C478.957 765.17 481.457 764.874 483.353 764.566C485.249 764.235 486.623 763.774 487.476 763.183C488.353 762.568 488.791 761.704 488.791 760.593L488.791 760.415C488.791 758.594 488.163 757.187 486.907 756.193C485.651 755.2 483.957 754.703 481.825 754.703C479.526 754.703 477.678 755.2 476.28 756.193C474.882 757.187 473.993 758.559 473.614 760.309L457.584 759.741C458.058 756.43 459.278 753.473 461.245 750.871C463.235 748.246 465.96 746.188 469.42 744.698C472.903 743.184 477.085 742.427 481.967 742.427C485.45 742.427 488.661 742.841 491.599 743.669C494.537 744.473 497.096 745.656 499.276 747.217C501.456 748.755 503.139 750.647 504.324 752.894C505.532 755.141 506.136 757.707 506.136 760.593L506.136 797.633L489.786 797.633L489.786 790.041L489.36 790.041C488.388 791.885 487.144 793.447 485.628 794.724C484.135 796.001 482.37 796.959 480.332 797.598C478.318 798.236 476.043 798.556 473.507 798.556ZM478.874 787.202C480.746 787.202 482.429 786.824 483.922 786.067C485.438 785.31 486.647 784.269 487.547 782.945C488.447 781.596 488.898 780.035 488.898 778.261L488.898 773.081C488.4 773.342 487.796 773.578 487.085 773.791C486.398 774.004 485.64 774.205 484.81 774.394C483.981 774.583 483.128 774.749 482.251 774.891C481.374 775.033 480.533 775.163 479.727 775.281C478.092 775.541 476.694 775.943 475.533 776.487C474.396 777.031 473.519 777.741 472.903 778.616C472.311 779.468 472.015 780.485 472.015 781.667C472.015 783.465 472.654 784.837 473.934 785.783C475.237 786.729 476.884 787.202 478.874 787.202ZM559.423 759.777L543.464 760.202C543.298 759.067 542.848 758.062 542.113 757.187C541.379 756.288 540.419 755.59 539.234 755.093C538.073 754.573 536.723 754.313 535.182 754.313C533.168 754.313 531.45 754.715 530.028 755.519C528.63 756.323 527.943 757.411 527.967 758.783C527.943 759.848 528.37 760.77 529.247 761.551C530.147 762.331 531.746 762.958 534.045 763.431L544.566 765.418C550.016 766.459 554.068 768.185 556.722 770.598C559.399 773.011 560.75 776.204 560.774 780.177C560.75 783.914 559.636 787.167 557.432 789.934C555.252 792.701 552.267 794.854 548.476 796.391C544.684 797.905 540.348 798.662 535.467 798.662C527.671 798.662 521.522 797.065 517.02 793.872C512.541 790.656 509.982 786.351 509.342 780.958L526.51 780.532C526.889 782.519 527.872 784.033 529.46 785.073C531.047 786.114 533.073 786.635 535.538 786.635C537.765 786.635 539.578 786.221 540.976 785.393C542.374 784.565 543.085 783.465 543.108 782.093C543.085 780.863 542.54 779.882 541.473 779.148C540.407 778.392 538.737 777.8 536.462 777.374L526.936 775.565C521.463 774.572 517.387 772.738 514.709 770.066C512.032 767.369 510.705 763.94 510.728 759.777C510.705 756.134 511.676 753.024 513.643 750.446C515.61 747.844 518.406 745.857 522.031 744.485C525.657 743.113 529.934 742.427 534.862 742.427C542.255 742.427 548.085 743.977 552.35 747.075C556.615 750.15 558.973 754.384 559.423 759.777ZM574.954 818.069C572.868 818.069 570.902 817.904 569.053 817.572C567.205 817.265 565.618 816.851 564.291 816.331L568.129 803.736C569.835 804.303 571.376 804.634 572.75 804.729C574.148 804.824 575.345 804.599 576.34 804.055C577.359 803.534 578.141 802.6 578.686 801.252L579.361 799.62L559.954 743.137L578.152 743.137L588.211 782.022L588.78 782.022L598.981 743.137L617.286 743.137L596.706 802.849C595.711 805.829 594.301 808.454 592.476 810.725C590.676 813.019 588.342 814.817 585.474 816.118C582.631 817.419 579.124 818.069 574.954 818.069Z" fill="#007CC4"/>
<path d="M564 400.499C563.495 399.694 544.533 444.148 502 470.001C456.5 500.001 403.5 495.499 403.5 495.499C403.5 495.499 422.5 450.5 466.5 425.5C513 394.5 564 400.499 564 400.499Z" fill="white"/>
<path d="M409 495.5C408.91 494.862 365 497 322 469C281 444 262 401 262 401C261.888 402.799 295.5 395.982 345 425C388.5 450.5 409 494.5 409 495.5Z" fill="white"/>
<path d="M425.5 566C426.5 610.5 406.5 645 406.5 645C406.5 645 387 609.63 387 566C387 522.37 406.5 490 406.5 490C406.5 490 425.5 522.37 425.5 566Z" fill="white"/>
</svg>
