<svg width="317" height="295" viewBox="0 0 317 295" fill="none" xmlns="http://www.w3.org/2000/svg">
<circle cx="202.15" cy="138.961" r="49.7569" transform="rotate(120 202.15 138.961)" fill="#E8E8EF"/>
<circle cx="202.455" cy="138.434" r="28.6786" transform="rotate(120 202.455 138.434)" fill="#2274AC"/>
<rect x="279.783" y="120.437" width="112.08" height="53.7532" transform="rotate(120 279.783 120.437)" fill="#2274AC"/>
<circle cx="202.454" cy="138.434" r="17.3288" transform="rotate(120 202.454 138.434)" fill="#E8E8EF"/>
<circle cx="159.958" cy="67.9386" r="49.7569" fill="#E8E8EF"/>
<circle cx="159.35" cy="67.9385" r="28.6786" fill="#2274AC"/>
<rect x="105.03" y="18.0815" width="112.08" height="45.3994" fill="#2274AC"/>
<circle cx="159.35" cy="67.9385" r="17.3288" fill="#E8E8EF"/>
<path d="M89.1527 95.7347C112.951 81.9947 143.382 90.1487 157.122 113.947C170.862 137.745 162.708 168.176 138.91 181.916C115.111 195.656 84.6804 187.502 70.9404 163.704C57.2004 139.906 65.3543 109.475 89.1527 95.7347Z" fill="#E8E8EF"/>
<circle cx="114.335" cy="139.352" r="28.6786" transform="rotate(-120 114.335 139.352)" fill="#2274AC"/>
<rect x="98.3525" y="211.183" width="112.08" height="45.3994" transform="rotate(-120 98.3525 211.183)" fill="#2274AC"/>
<circle cx="114.447" cy="139.288" r="17.3288" transform="rotate(-120 114.447 139.288)" fill="#E8E8EF"/>
<ellipse cx="114.367" cy="139.367" rx="6.83014" ry="6.72665" transform="rotate(-120 114.367 139.367)" fill="#2274AC"/>
<ellipse cx="202.323" cy="138.472" rx="6.83014" ry="6.72665" transform="rotate(-120 202.323 138.472)" fill="#2274AC"/>
<ellipse cx="159.628" cy="67.9314" rx="6.83014" ry="6.72665" transform="rotate(-120 159.628 67.9314)" fill="#2274AC"/>
<path d="M97.0436 200.182H103.574L109.114 213.69H109.37L114.909 200.182H121.44V222H116.305V208.598H116.124L110.882 221.861H107.601L102.36 208.523H102.179V222H97.0436V200.182ZM127.842 222.277C126.798 222.277 125.871 222.103 125.062 221.755C124.259 221.4 123.623 220.867 123.155 220.157C122.693 219.44 122.462 218.541 122.462 217.462C122.462 216.552 122.622 215.785 122.942 215.16C123.261 214.535 123.701 214.028 124.263 213.637C124.824 213.246 125.47 212.952 126.201 212.753C126.933 212.547 127.714 212.408 128.545 212.337C129.476 212.252 130.225 212.163 130.793 212.071C131.361 211.972 131.773 211.833 132.029 211.655C132.292 211.471 132.423 211.212 132.423 210.878V210.825C132.423 210.278 132.235 209.855 131.858 209.557C131.482 209.258 130.974 209.109 130.335 209.109C129.646 209.109 129.092 209.258 128.673 209.557C128.254 209.855 127.988 210.267 127.874 210.793L123.069 210.622C123.211 209.628 123.577 208.74 124.167 207.959C124.763 207.17 125.58 206.552 126.617 206.105C127.661 205.651 128.915 205.423 130.378 205.423C131.422 205.423 132.384 205.548 133.265 205.796C134.145 206.038 134.912 206.393 135.566 206.861C136.219 207.323 136.723 207.891 137.079 208.566C137.441 209.241 137.622 210.011 137.622 210.878V222H132.721V219.72H132.593C132.302 220.274 131.929 220.743 131.475 221.126C131.027 221.51 130.498 221.798 129.888 221.989C129.284 222.181 128.602 222.277 127.842 222.277ZM129.451 218.868C130.012 218.868 130.516 218.754 130.964 218.527C131.418 218.3 131.78 217.987 132.05 217.589C132.32 217.185 132.455 216.716 132.455 216.183V214.628C132.306 214.706 132.125 214.777 131.912 214.841C131.706 214.905 131.478 214.965 131.23 215.022C130.981 215.079 130.726 215.128 130.463 215.171C130.2 215.214 129.948 215.253 129.706 215.288C129.216 215.366 128.797 215.487 128.449 215.651C128.108 215.814 127.846 216.027 127.661 216.29C127.483 216.545 127.395 216.851 127.395 217.206C127.395 217.746 127.586 218.158 127.97 218.442C128.361 218.726 128.854 218.868 129.451 218.868ZM144.517 212.668V222H139.307V205.636H144.261V208.641H144.442C144.804 207.639 145.422 206.854 146.296 206.286C147.169 205.711 148.21 205.423 149.417 205.423C150.568 205.423 151.566 205.682 152.411 206.201C153.263 206.712 153.924 207.43 154.392 208.353C154.868 209.269 155.103 210.342 155.096 211.57V222H149.886V212.593C149.893 211.684 149.662 210.974 149.194 210.462C148.732 209.951 148.089 209.695 147.265 209.695C146.718 209.695 146.236 209.816 145.817 210.057C145.405 210.292 145.085 210.629 144.858 211.07C144.638 211.51 144.524 212.043 144.517 212.668ZM164.47 222.309C162.758 222.309 161.281 221.972 160.038 221.297C158.802 220.615 157.851 219.646 157.183 218.388C156.523 217.124 156.192 215.622 156.192 213.882C156.192 212.192 156.526 210.714 157.194 209.45C157.861 208.179 158.802 207.192 160.017 206.489C161.231 205.778 162.663 205.423 164.31 205.423C165.475 205.423 166.54 205.604 167.506 205.967C168.472 206.329 169.307 206.865 170.01 207.575C170.713 208.285 171.26 209.163 171.65 210.207C172.041 211.244 172.236 212.433 172.236 213.776V215.075H158.014V212.05H167.389C167.382 211.496 167.251 211.002 166.995 210.569C166.739 210.136 166.388 209.798 165.94 209.557C165.5 209.308 164.992 209.184 164.417 209.184C163.834 209.184 163.312 209.315 162.851 209.578C162.389 209.834 162.023 210.185 161.753 210.633C161.484 211.073 161.342 211.574 161.327 212.135V215.214C161.327 215.881 161.459 216.467 161.722 216.972C161.984 217.469 162.357 217.856 162.84 218.133C163.323 218.41 163.898 218.548 164.566 218.548C165.028 218.548 165.447 218.484 165.823 218.356C166.199 218.229 166.523 218.04 166.793 217.792C167.062 217.543 167.265 217.238 167.4 216.876L172.183 217.014C171.984 218.087 171.548 219.021 170.873 219.816C170.205 220.604 169.328 221.219 168.241 221.659C167.155 222.092 165.898 222.309 164.47 222.309ZM178.01 222.277C176.966 222.277 176.039 222.103 175.229 221.755C174.427 221.4 173.791 220.867 173.323 220.157C172.861 219.44 172.63 218.541 172.63 217.462C172.63 216.552 172.79 215.785 173.109 215.16C173.429 214.535 173.869 214.028 174.43 213.637C174.992 213.246 175.638 212.952 176.369 212.753C177.101 212.547 177.882 212.408 178.713 212.337C179.644 212.252 180.393 212.163 180.961 212.071C181.529 211.972 181.941 211.833 182.197 211.655C182.46 211.471 182.591 211.212 182.591 210.878V210.825C182.591 210.278 182.403 209.855 182.026 209.557C181.65 209.258 181.142 209.109 180.503 209.109C179.814 209.109 179.26 209.258 178.841 209.557C178.422 209.855 178.156 210.267 178.042 210.793L173.237 210.622C173.379 209.628 173.745 208.74 174.335 207.959C174.931 207.17 175.748 206.552 176.785 206.105C177.829 205.651 179.082 205.423 180.546 205.423C181.59 205.423 182.552 205.548 183.433 205.796C184.313 206.038 185.08 206.393 185.734 206.861C186.387 207.323 186.891 207.891 187.247 208.566C187.609 209.241 187.79 210.011 187.79 210.878V222H182.889V219.72H182.761C182.47 220.274 182.097 220.743 181.643 221.126C181.195 221.51 180.666 221.798 180.055 221.989C179.452 222.181 178.77 222.277 178.01 222.277ZM179.619 218.868C180.18 218.868 180.684 218.754 181.131 218.527C181.586 218.3 181.948 217.987 182.218 217.589C182.488 217.185 182.623 216.716 182.623 216.183V214.628C182.474 214.706 182.293 214.777 182.08 214.841C181.874 214.905 181.646 214.965 181.398 215.022C181.149 215.079 180.894 215.128 180.631 215.171C180.368 215.214 180.116 215.253 179.874 215.288C179.384 215.366 178.965 215.487 178.617 215.651C178.276 215.814 178.014 216.027 177.829 216.29C177.651 216.545 177.563 216.851 177.563 217.206C177.563 217.746 177.754 218.158 178.138 218.442C178.529 218.726 179.022 218.868 179.619 218.868ZM203.761 210.633L198.978 210.761C198.928 210.42 198.793 210.118 198.573 209.855C198.353 209.585 198.065 209.376 197.71 209.227C197.362 209.07 196.957 208.992 196.496 208.992C195.892 208.992 195.377 209.113 194.951 209.354C194.532 209.596 194.326 209.923 194.333 210.334C194.326 210.654 194.454 210.931 194.717 211.165C194.987 211.4 195.466 211.588 196.155 211.73L199.308 212.327C200.942 212.639 202.156 213.158 202.952 213.882C203.754 214.606 204.159 215.565 204.166 216.758C204.159 217.881 203.825 218.857 203.165 219.688C202.511 220.519 201.617 221.165 200.48 221.627C199.344 222.082 198.044 222.309 196.581 222.309C194.244 222.309 192.401 221.829 191.052 220.871C189.71 219.905 188.943 218.612 188.751 216.993L193.896 216.865C194.01 217.462 194.305 217.916 194.781 218.229C195.256 218.541 195.864 218.697 196.602 218.697C197.27 218.697 197.813 218.573 198.232 218.325C198.651 218.076 198.864 217.746 198.872 217.334C198.864 216.964 198.701 216.67 198.381 216.45C198.062 216.222 197.561 216.045 196.879 215.917L194.024 215.374C192.384 215.075 191.162 214.525 190.359 213.722C189.557 212.913 189.159 211.883 189.166 210.633C189.159 209.539 189.45 208.605 190.04 207.831C190.629 207.05 191.467 206.453 192.554 206.041C193.641 205.629 194.923 205.423 196.4 205.423C198.616 205.423 200.363 205.888 201.641 206.819C202.92 207.742 203.627 209.013 203.761 210.633ZM208.416 228.136C207.791 228.136 207.202 228.087 206.648 227.987C206.094 227.895 205.618 227.771 205.22 227.614L206.371 223.832C206.882 224.003 207.344 224.102 207.756 224.131C208.175 224.159 208.534 224.092 208.832 223.928C209.137 223.772 209.372 223.491 209.535 223.087L209.737 222.597L203.921 205.636H209.375L212.39 217.312H212.561L215.618 205.636H221.105L214.936 223.566C214.638 224.461 214.215 225.249 213.669 225.931C213.129 226.62 212.429 227.16 211.57 227.55C210.718 227.941 209.666 228.136 208.416 228.136Z" fill="#E8E8EF"/>
<path d="M158.166 117.636C158.166 117.636 144.982 117.367 134.892 111.044C123.053 106.066 114.537 89.2419 114.806 88.9728C115.075 88.7036 126.551 90.9982 138.121 97.0522C151.843 104.586 158.166 117.636 158.166 117.636Z" fill="#2274AC"/>
<path d="M204.984 89.2493C204.849 89.1148 202.562 100.012 186.822 109.833C172.427 119.654 157.09 117.636 157.09 117.636C157.09 117.636 161.261 107.277 174.714 97.1867C190.454 87.6349 204.984 89.2493 204.984 89.2493Z" fill="#2274AC"/>
<path d="M164.221 141.459C164.221 154.451 158.121 162.297 158.121 162.297C158.121 162.297 151.306 154.835 151.306 141.459C151.306 128.082 157.277 116.832 157.567 116.562C157.771 116.371 164.221 127.521 164.221 141.459Z" fill="#2274AC"/>
</svg>
